<?xml version='1.0' encoding='utf-8'?>
<mxfile host="app.diagrams.net"><diagram id="epigeneticOverrideEngine" name="Epigenetic Override Engine"><mxGraphModel><root><mxCell id="0" parent="1" /><mxCell id="1" parent="0" /><mxCell id="2" value="ETE Request Intake&lt;br&gt;&lt;i&gt;Accepts environment setup requests&lt;/i&gt;" vertex="1" parent="1"><mxGeometry x="40" y="160" width="160" height="70" as="geometry" /></mxCell><mxCell id="3" value="Signal Collectors&lt;br&gt;&lt;i&gt;Gathers identity, approval, telemetry, context&lt;/i&gt;" vertex="1" parent="1"><mxGeometry x="240" y="160" width="200" height="80" as="geometry" /></mxCell><mxCell id="4" value="Slot Indexer&lt;br&gt;&lt;i&gt;Matches signals to execution slots&lt;/i&gt;" vertex="1" parent="1"><mxGeometry x="500" y="160" width="180" height="70" as="geometry" /></mxCell><mxCell id="5" value="Executing Plan&lt;br&gt;&lt;i&gt;Creates plan from indexed slots&lt;/i&gt;" vertex="1" parent="1"><mxGeometry x="760" y="160" width="160" height="70" as="geometry" /></mxCell><mxCell id="6" value="Marker Synthesizer&lt;br&gt;&lt;i&gt;Converts signals into AI markers&lt;/i&gt;" vertex="1" parent="1"><mxGeometry x="240" y="300" width="200" height="70" as="geometry" /></mxCell><mxCell id="7" value="Override Module&lt;br&gt;&lt;i&gt;Adjusts baselines dynamically&lt;/i&gt;" vertex="1" parent="1"><mxGeometry x="500" y="300" width="200" height="70" as="geometry" /></mxCell><mxCell id="8" value="Drift &amp; Conflict Manager&lt;br&gt;&lt;i&gt;Resolves drift and conflicts&lt;/i&gt;" vertex="1" parent="1"><mxGeometry x="500" y="420" width="220" height="70" as="geometry" /></mxCell><mxCell id="9" value="Executor&lt;br&gt;&lt;i&gt;Executes final overridden plan&lt;/i&gt;" vertex="1" parent="1"><mxGeometry x="760" y="420" width="180" height="70" as="geometry" /></mxCell><mxCell id="e1" edge="1" parent="1" source="2" target="3"><mxGeometry relative="1" as="geometry" /></mxCell><mxCell id="e2" edge="1" parent="1" source="3" target="4"><mxGeometry relative="1" as="geometry" /></mxCell><mxCell id="e3" edge="1" parent="1" source="4" target="5"><mxGeometry relative="1" as="geometry" /></mxCell><mxCell id="e4" edge="1" parent="1" source="4" target="7"><mxGeometry relative="1" as="geometry" /></mxCell><mxCell id="e5" edge="1" parent="1" source="6" target="7"><mxGeometry relative="1" as="geometry" /></mxCell><mxCell id="e6" edge="1" parent="1" source="7" target="8"><mxGeometry relative="1" as="geometry" /></mxCell><mxCell id="e7" edge="1" parent="1" source="7" target="9"><mxGeometry relative="1" as="geometry" /></mxCell><mxCell id="e8" edge="1" parent="1" source="8" target="9"><mxGeometry relative="1" as="geometry" /></mxCell></root></mxGraphModel></diagram></mxfile>